<svg xmlns="http://www.w3.org/2000/svg" version="1.1" xmlns:xlink="http://www.w3.org/1999/xlink" xmlns:svgjs="http://svgjs.dev/svgjs" width="1440" height="560" preserveAspectRatio="none" viewBox="0 0 1440 560"><g mask="url(&quot;#SvgjsMask2003&quot;)" fill="none"><rect width="1440" height="560" x="0" y="0" fill="url(&quot;#SvgjsLinearGradient2004&quot;)"></rect><path d="M299.4521943238134 184.77895915311373L218.91336645236933 214.09269520100858 328.76593037170824 265.3177870245578z" fill="rgba(0, 123, 255, 0.62)" class="triangle-float1"></path><path d="M1111.5569246007838 543.6832121782464L1003.5271876898595 459.1152090017608 984.7661490454846 577.56774515956z" fill="rgba(0, 123, 255, 0.62)" class="triangle-float1"></path><path d="M1308.9856665622708 366.5853454030272L1242.5096073702694 515.8930189324956 1458.293340091739 433.06140459502853z" fill="rgba(0, 123, 255, 0.62)" class="triangle-float1"></path><path d="M568.8111122345048-1.5697605080645758L455.9259322199182-27.63135782291573 429.86433490506704 85.25382219167086 542.7495149196536 111.31541950652202z" fill="rgba(0, 123, 255, 0.62)" class="triangle-float2"></path><path d="M1364.9046759886648 406.8644261262094L1364.9046759886648 483.7468506803126 1480.2283128198196 445.30563840326096z" fill="rgba(0, 123, 255, 0.62)" class="triangle-float2"></path><path d="M216.02386735095138 59.983296072103684L144.97207274919543 43.57969677617125 155.89257110617476 158.3591883267714z" fill="rgba(0, 123, 255, 0.62)" class="triangle-float2"></path><path d="M45.20499073698882 268.86579315126215L87.00987869797032 330.8440883352614 159.07487749347845 237.1476088017895z" fill="rgba(0, 123, 255, 0.62)" class="triangle-float2"></path><path d="M1278.106580690581 536.9859661816969L1370.0993858251463 505.31030314989073 1276.5894887101545 383.15892696394576z" fill="rgba(0, 123, 255, 0.62)" class="triangle-float3"></path><path d="M1167.9535001534027-39.69595577563749L1083.735994718184-29.35534635043618 1141.3556615735954 91.80060708979127z" fill="rgba(0, 123, 255, 0.62)" class="triangle-float3"></path><path d="M554.6922314165942 301.63190607616775L673.5902915827764 269.7732668730122 641.7316523796209 150.87520670682983 522.8335922134386 182.7338459099854z" fill="rgba(0, 123, 255, 0.62)" class="triangle-float3"></path><path d="M106.05650947079732 179.70636342101625L117.20729681827612 250.1096639259797 217.23685390198187 198.18183265227978z" fill="rgba(0, 123, 255, 0.62)" class="triangle-float2"></path><path d="M765.4784488813326 71.72679278145068L809.0266906525757 247.1010968596873 924.5516694321155 139.37231132203317z" fill="rgba(0, 123, 255, 0.62)" class="triangle-float3"></path><path d="M1193.7115162224316 384.8152744641288L1159.8837884617344 464.508406939609 1239.5769209372147 498.33613470030616 1273.4046486979119 418.6430022248259z" fill="rgba(0, 123, 255, 0.62)" class="triangle-float2"></path><path d="M1116.7809060996844 211.44536999667355L1195.4314031570361 85.57826382955189 1069.5642969899145 6.927766772200073 990.9137999325628 132.79487293932175z" fill="rgba(0, 123, 255, 0.62)" class="triangle-float3"></path><path d="M602.5413391740891 152.0011660086906L574.8304140624575 9.440814939393903 432.2700629931608 37.1517400510255 459.9809881047924 179.71209112032219z" fill="rgba(0, 123, 255, 0.62)" class="triangle-float1"></path><path d="M183.40213640669648 460.6523598086069L319.7257348662453 388.16781674963255 110.91759334772215 324.328761349058z" fill="rgba(0, 123, 255, 0.62)" class="triangle-float1"></path><path d="M943.3103648751219 246.38665952177197L1065.0865483723755 222.7157673279642 1041.4156561785678 100.93958383071046 919.639472681314 124.61047602451825z" fill="rgba(0, 123, 255, 0.62)" class="triangle-float2"></path><path d="M744.4706312131462 98.37185226394669L657.0763051115462 137.28231317758758 695.9867660251871 224.67663927918764 783.3810921267872 185.76617836554675z" fill="rgba(0, 123, 255, 0.62)" class="triangle-float3"></path><path d="M815.5995598063927 356.56759219119317L752.0395918130528 413.79724442783777 809.2692440496972 477.3572124211777 872.8292120430373 420.12756018453314z" fill="rgba(0, 123, 255, 0.62)" class="triangle-float3"></path><path d="M1101.175150245373 291.80198843858574L1230.2630744866424 412.40863278388963 1267.6232782707225 262.565039773687z" fill="rgba(0, 123, 255, 0.62)" class="triangle-float1"></path></g><defs><mask id="SvgjsMask2003"><rect width="1440" height="560" fill="#ffffff"></rect></mask><linearGradient x1="0%" y1="50%" x2="100%" y2="50%" gradientUnits="userSpaceOnUse" id="SvgjsLinearGradient2004"><stop stop-color="rgba(149, 0, 255, 1)" offset="0"></stop><stop stop-color="rgba(0, 9, 200, 1)" offset="0.49"></stop><stop stop-color="rgba(149, 0, 255, 1)" offset="1"></stop><stop stop-color="#00459e" offset="1"></stop></linearGradient><style>
                @keyframes float1 {
                    0%{transform: translate(0, 0)}
                    50%{transform: translate(-10px, 0)}
                    100%{transform: translate(0, 0)}
                }

                .triangle-float1 {
                    animation: float1 5s infinite;
                }

                @keyframes float2 {
                    0%{transform: translate(0, 0)}
                    50%{transform: translate(-5px, -5px)}
                    100%{transform: translate(0, 0)}
                }

                .triangle-float2 {
                    animation: float2 4s infinite;
                }

                @keyframes float3 {
                    0%{transform: translate(0, 0)}
                    50%{transform: translate(0, -10px)}
                    100%{transform: translate(0, 0)}
                }

                .triangle-float3 {
                    animation: float3 6s infinite;
                }
            </style></defs></svg>